<?xml version="1.0" standalone="no"?><!DOCTYPE svg PUBLIC "-//W3C//DTD SVG 1.1//EN" "http://www.w3.org/Graphics/SVG/1.1/DTD/svg11.dtd"><svg t="1718002759053" class="icon" viewBox="0 0 1024 1024" version="1.1" xmlns="http://www.w3.org/2000/svg" p-id="10769" xmlns:xlink="http://www.w3.org/1999/xlink" width="200" height="200"><path d="M725.333333 179.2L605.866667 298.666667 725.333333 418.133333 844.8 298.666667 725.333333 179.2zM426.666667 170.666667H170.666667v256h256V170.666667z m328.533333-21.333334l119.466667 119.466667c17.066667 17.066667 17.066667 42.666667 0 59.733333l-119.466667 119.466667c-17.066667 17.066667-42.666667 17.066667-59.733333 0l-119.466667-119.466667c-17.066667-17.066667-17.066667-42.666667 0-59.733333l119.466667-119.466667c17.066667-17.066667 42.666667-17.066667 59.733333 0zM426.666667 128c25.6 0 42.666667 17.066667 42.666666 42.666667v256c0 25.6-17.066667 42.666667-42.666666 42.666666H170.666667c-25.6 0-42.666667-17.066667-42.666667-42.666666V170.666667c0-25.6 17.066667-42.666667 42.666667-42.666667h256z m426.666666 469.333333h-256v256h256v-256z m-426.666666 0H170.666667v256h256v-256z m426.666666-42.666666c25.6 0 42.666667 17.066667 42.666667 42.666666v256c0 25.6-17.066667 42.666667-42.666667 42.666667h-256c-25.6 0-42.666667-17.066667-42.666666-42.666667v-256c0-25.6 17.066667-42.666667 42.666666-42.666666h256z m-426.666666 0c25.6 0 42.666667 17.066667 42.666666 42.666666v256c0 25.6-17.066667 42.666667-42.666666 42.666667H170.666667c-25.6 0-42.666667-17.066667-42.666667-42.666667v-256c0-25.6 17.066667-42.666667 42.666667-42.666666h256z" p-id="10770" fill="#DCDFE6"></path></svg>