<?xml version="1.0" standalone="no"?><!DOCTYPE svg PUBLIC "-//W3C//DTD SVG 1.1//EN" "http://www.w3.org/Graphics/SVG/1.1/DTD/svg11.dtd"><svg t="1718002581181" class="icon" viewBox="0 0 1024 1024" version="1.1" xmlns="http://www.w3.org/2000/svg" p-id="6953" xmlns:xlink="http://www.w3.org/1999/xlink" width="200" height="200"><path d="M926.08 99.84s-35.627-78.507-78.72-78.507H177.28c-42.667 0-78.72 78.72-78.72 78.72S0 307.84 0 355.84a157.227 157.227 0 0 0 309.973 37.12h49.067a156.8 156.8 0 0 0 305.067 0h49.066A157.227 157.227 0 0 0 1024 355.84c0-48-97.92-256-97.92-256z m-59.307 341.333a85.333 85.333 0 0 1-83.626-66.346 70.4 70.4 0 0 0-68.907-53.974h-49.067a71.467 71.467 0 0 0-68.906 53.974 86.827 86.827 0 0 1-84.267 67.2 85.333 85.333 0 0 1-83.627-66.347 70.4 70.4 0 0 0-68.906-53.973H310.4a71.467 71.467 0 0 0-68.907 53.973 85.333 85.333 0 0 1-170.666-18.773C75.52 328.32 121.813 217.387 163.84 128a143.147 143.147 0 0 1 24.32-36.267h649.387A158.507 158.507 0 0 1 861.867 128v1.067c41.6 87.253 87.893 198.826 91.733 227.413a87.467 87.467 0 0 1-86.827 85.547z m39.254 156.16A35.627 35.627 0 0 0 870.4 632.96v256a42.667 42.667 0 0 1-42.667 42.667h-631.04a42.667 42.667 0 0 1-42.666-42.667v-256a35.627 35.627 0 0 0-71.254 0v256a114.347 114.347 0 0 0 113.92 113.707H826.88A114.347 114.347 0 0 0 941.227 888.32v-256a34.773 34.773 0 0 0-35.2-34.987z" p-id="6954" fill="#DCDFE6"></path><path d="M788.053 182.4H394.027a35.627 35.627 0 1 0 0 71.253h394.026a35.627 35.627 0 1 0 0-71.253z m-512 0h-39.466a35.627 35.627 0 1 0 0 71.253h39.253a35.627 35.627 0 1 0 0-71.253z m0 0" p-id="6955" fill="#DCDFE6"></path></svg>